<?xml version="1.0" encoding="UTF-8"?>
<!DOCTYPE svg PUBLIC "-//W3C//DTD SVG 1.1//EN" "http://www.w3.org/Graphics/SVG/1.1/DTD/svg11.dtd">
<!-- Creator: CorelDRAW X7 -->
<svg xmlns="http://www.w3.org/2000/svg" xml:space="preserve" width="50px" height="50px" version="1.1" style="shape-rendering:geometricPrecision; text-rendering:geometricPrecision; image-rendering:optimizeQuality; fill-rule:evenodd; clip-rule:evenodd"
viewBox="0 0 50 50"
 xmlns:xlink="http://www.w3.org/1999/xlink">
 <defs>
  <style type="text/css">
   <![CDATA[
    .fil0 {fill:#0C0C0C}
    .fil1 {fill:#F6F6F6}
   ]]>
  </style>
 </defs>
 <g id="Layer_x0020_1">
  <metadata id="CorelCorpID_0Corel-Layer"/>
  <g id="_424791400">
   <path class="fil0" d="M37 -178l0 -9c-3,-6 -2,-12 -8,-16 -5,-4 -6,-1 -9,-2 -3,0 -14,-10 -28,-8 -9,1 -10,6 -14,12 -20,3 -13,13 -10,19 -3,3 -5,6 -4,12 2,7 5,5 8,9 4,4 0,5 8,8 12,4 30,0 40,-8 2,-2 7,-8 8,-9 7,-4 3,2 9,-8z"/>
   <path class="fil1" d="M-19 -200c7,0 9,-1 14,-4 -9,11 -19,3 -25,8 -4,3 -4,9 0,12 3,2 9,2 13,3 -6,1 -10,0 -15,2 -5,18 10,14 19,16l-11 2c3,16 52,6 51,-20 -1,-32 -43,-38 -46,-19z"/>
   <path class="fil1" d="M30 -173c6,-4 5,-11 3,-18 -2,-6 -4,-11 -10,-11 2,7 6,7 7,24l0 5z"/>
  </g>
  <g id="_424796152">
   <path class="fil0" d="M15 21c-1,-12 -10,-9 -11,-7 -1,3 2,6 2,9 0,1 0,4 0,5 -1,4 -2,2 -3,4 -1,4 3,11 7,12 3,1 3,0 5,-1 1,0 5,1 10,-1 5,-2 5,-4 16,-9 3,-1 7,-2 6,-6 -3,-4 -7,-1 -11,-1 5,-5 11,-5 9,-10 -1,-2 -4,-3 -7,-2 -3,1 -5,3 -7,4 1,-3 5,-7 5,-9 0,-4 -5,-5 -8,-2 -2,0 -5,5 -7,7 -2,3 -4,5 -6,7z"/>
   <path class="fil1" d="M13 23c0,-7 -1,-11 -8,-9 0,4 2,5 2,8 2,5 -3,9 4,17 7,9 19,-2 22,-4 2,-1 5,-2 7,-3 5,-2 6,-2 6,-5 -4,-1 -5,0 -9,0 -5,1 -4,2 -7,4 1,-3 4,-5 7,-7 1,-1 2,-2 4,-3 1,-1 3,-1 4,-3 -3,-6 -8,-3 -11,-1 -1,1 -3,2 -5,3 -1,1 -1,1 -2,2l-2 2c1,-2 6,-9 8,-12 1,-1 2,-2 2,-4 -6,-3 -8,1 -11,5 -2,3 -7,9 -11,10z"/>
   <path class="fil1" d="M13 43c0,0 0,0 0,0 0,0 -5,-5 -7,-9l-1 -2c-3,3 3,12 8,11z"/>
  </g>
  <g id="_424795144">
   <path class="fil0" d="M-243 -38l0 8c5,6 3,3 6,5 1,1 1,0 2,2 0,0 0,1 1,2 5,12 18,22 30,23 19,1 10,-13 36,2 21,13 20,-9 12,-15 -4,-4 -10,-6 -14,-10 7,1 16,3 23,1 4,-7 1,-15 -7,-18 -5,-2 -20,-3 -27,-4 -1,-17 -15,-21 -32,-16 -6,1 -5,2 -10,1 -4,-1 -8,0 -10,2 -5,4 -6,12 -10,17z"/>
   <path class="fil1" d="M-189 -5l-9 -4c17,0 34,16 42,15 8,-11 -3,-16 -10,-20 -10,-7 -11,-7 -25,-10 1,0 7,-1 10,0l23 2c6,1 6,1 10,-1 5,-23 -39,-8 -47,-25 0,0 0,0 1,0l4 3c3,2 4,2 7,2 -1,-6 -3,-10 -9,-13 -5,-2 -12,-2 -18,-1 -19,4 -36,29 -11,49 7,6 24,12 32,3z"/>
   <path class="fil1" d="M-238 -28c0,0 1,-1 1,-1l2 -6c1,-3 1,-5 3,-7 5,-10 6,-9 8,-13 -6,0 -8,2 -12,10 -3,4 -7,12 -2,17z"/>
  </g>
 </g>
</svg>
