<?xml version="1.0" encoding="UTF-8"?>
<!DOCTYPE svg PUBLIC "-//W3C//DTD SVG 1.1//EN" "http://www.w3.org/Graphics/SVG/1.1/DTD/svg11.dtd">
<!-- Creator: CorelDRAW X7 -->
<svg xmlns="http://www.w3.org/2000/svg" xml:space="preserve" width="50px" height="50px" version="1.1" style="shape-rendering:geometricPrecision; text-rendering:geometricPrecision; image-rendering:optimizeQuality; fill-rule:evenodd; clip-rule:evenodd"
viewBox="0 0 50 50"
 xmlns:xlink="http://www.w3.org/1999/xlink">
 <defs>
  <style type="text/css">
   <![CDATA[
    .fil0 {fill:#0C0C0C}
    .fil1 {fill:#F6F6F6}
   ]]>
  </style>
 </defs>
 <g id="Layer_x0020_1">
  <metadata id="CorelCorpID_0Corel-Layer"/>
  <g id="_430586000">
   <path class="fil0" d="M47 28l0 -6c-2,-4 -1,-7 -5,-10 -3,-2 -4,0 -6,0 -1,-1 -8,-7 -16,-5 -5,0 -6,3 -8,7 -12,2 -8,8 -6,11 -2,2 -3,4 -3,7 2,5 3,3 5,6 2,2 0,3 5,5 7,2 18,0 24,-5 1,-2 4,-5 4,-6 4,-2 2,2 6,-4z"/>
   <path class="fil1" d="M14 15c4,-1 4,-1 8,-3 -5,7 -11,2 -15,5 -2,2 -2,5 0,7 1,1 5,1 8,2 -4,1 -7,0 -9,1 -3,11 6,9 11,9l-7 2c2,9 32,3 31,-12 -1,-19 -26,-23 -27,-11z"/>
   <path class="fil1" d="M43 30c3,-2 3,-6 1,-10 -1,-4 -2,-7 -6,-7 2,5 4,5 4,15l1 2z"/>
  </g>
  <g id="_430585832">
   <path class="fil0" d="M-30 98c-1,-12 -10,-9 -11,-7 -1,3 2,6 2,9 0,1 0,4 0,5 -1,4 -2,2 -3,4 -1,4 3,11 7,12 3,1 3,0 5,-1 1,0 5,1 10,-1 5,-2 5,-4 16,-9 3,-1 7,-2 6,-6 -3,-4 -7,-1 -11,-1 5,-5 11,-5 9,-10 -1,-2 -4,-3 -7,-2 -3,1 -5,3 -7,4 1,-3 5,-7 5,-9 0,-4 -5,-5 -8,-2 -2,0 -5,5 -7,7 -2,3 -4,5 -6,7z"/>
   <path class="fil1" d="M-32 100c0,-7 -1,-11 -8,-9 0,4 2,5 2,8 2,5 -3,9 4,17 7,9 19,-2 22,-4 2,-1 5,-2 7,-3 5,-2 6,-2 6,-5 -4,-1 -5,0 -9,0 -5,1 -4,2 -7,4 1,-3 4,-5 7,-7 1,-1 2,-2 4,-3 1,-1 3,-1 4,-3 -3,-6 -8,-3 -11,-1 -1,1 -3,2 -5,3 -1,1 -1,1 -2,2l-2 2c1,-2 6,-9 8,-12 1,-1 2,-2 2,-4 -6,-3 -8,1 -11,5 -2,3 -7,9 -11,10z"/>
   <path class="fil1" d="M-32 120c0,0 0,0 0,0 0,0 -5,-5 -7,-9l-1 -2c-3,3 3,12 8,11z"/>
  </g>
  <g id="_430587104">
   <path class="fil0" d="M-81 39l0 3c2,3 1,1 3,3 0,0 0,0 0,0 0,0 1,1 1,1 2,6 8,10 14,11 8,0 4,-6 16,1 9,5 9,-4 5,-7 -2,-2 -5,-3 -6,-5 3,0 7,2 10,1 2,-3 1,-7 -3,-8 -2,-1 -9,-2 -12,-2 -1,-8 -7,-10 -15,-8 -2,1 -2,2 -4,1 -2,0 -4,0 -5,1 -2,2 -3,5 -4,8z"/>
   <path class="fil1" d="M-57 53l-4 -1c8,0 15,7 19,6 4,-4 -1,-7 -4,-9 -5,-3 -5,-3 -12,-4 1,0 3,0 5,0l10 1c3,0 3,0 5,-1 2,-10 -18,-3 -22,-11 1,0 1,0 1,0l2 2c1,0 1,0 3,0 -1,-3 -1,-4 -4,-5 -2,-1 -5,-1 -8,-1 -9,2 -16,13 -5,22 3,3 11,5 14,1z"/>
   <path class="fil1" d="M-79 43c0,0 0,0 0,0l1 -3c1,-1 1,-2 2,-3 2,-5 3,-4 4,-6 -3,0 -4,1 -6,4 -1,2 -3,6 -1,8z"/>
  </g>
 </g>
</svg>
