<?xml version="1.0" encoding="UTF-8"?>
<!DOCTYPE svg PUBLIC "-//W3C//DTD SVG 1.1//EN" "http://www.w3.org/Graphics/SVG/1.1/DTD/svg11.dtd">
<!-- Creator: CorelDRAW X7 -->
<svg xmlns="http://www.w3.org/2000/svg" xml:space="preserve" width="50px" height="50px" version="1.1" style="shape-rendering:geometricPrecision; text-rendering:geometricPrecision; image-rendering:optimizeQuality; fill-rule:evenodd; clip-rule:evenodd"
viewBox="0 0 50 50"
 xmlns:xlink="http://www.w3.org/1999/xlink">
 <defs>
  <style type="text/css">
   <![CDATA[
    .fil0 {fill:#0C0C0C}
    .fil1 {fill:#F6F6F6}
   ]]>
  </style>
 </defs>
 <g id="Layer_x0020_1">
  <metadata id="CorelCorpID_0Corel-Layer"/>
  <g id="_429137672">
   <path class="fil0" d="M37 -178l0 -9c-3,-6 -2,-12 -8,-16 -5,-4 -6,-1 -9,-2 -3,0 -14,-10 -28,-8 -9,1 -10,6 -14,12 -20,3 -13,13 -10,19 -3,3 -5,6 -4,12 2,7 5,5 8,9 4,4 0,5 8,8 12,4 30,0 40,-8 2,-2 7,-8 8,-9 7,-4 3,2 9,-8z"/>
   <path class="fil1" d="M-19 -200c7,0 9,-1 14,-4 -9,11 -19,3 -25,8 -4,3 -4,9 0,12 3,2 9,2 13,3 -6,1 -10,0 -15,2 -5,18 10,14 19,16l-11 2c3,16 52,6 51,-20 -1,-32 -43,-38 -46,-19z"/>
   <path class="fil1" d="M30 -173c6,-4 5,-11 3,-18 -2,-6 -4,-11 -10,-11 2,7 6,7 7,24l0 5z"/>
  </g>
  <g id="_429138320">
   <path class="fil0" d="M-30 98c-1,-12 -10,-9 -11,-7 -1,3 2,6 2,9 0,1 0,4 0,5 -1,4 -2,2 -3,4 -1,4 3,11 7,12 3,1 3,0 5,-1 1,0 5,1 10,-1 5,-2 5,-4 16,-9 3,-1 7,-2 6,-6 -3,-4 -7,-1 -11,-1 5,-5 11,-5 9,-10 -1,-2 -4,-3 -7,-2 -3,1 -5,3 -7,4 1,-3 5,-7 5,-9 0,-4 -5,-5 -8,-2 -2,0 -5,5 -7,7 -2,3 -4,5 -6,7z"/>
   <path class="fil1" d="M-32 100c0,-7 -1,-11 -8,-9 0,4 2,5 2,8 2,5 -3,9 4,17 7,9 19,-2 22,-4 2,-1 5,-2 7,-3 5,-2 6,-2 6,-5 -4,-1 -5,0 -9,0 -5,1 -4,2 -7,4 1,-3 4,-5 7,-7 1,-1 2,-2 4,-3 1,-1 3,-1 4,-3 -3,-6 -8,-3 -11,-1 -1,1 -3,2 -5,3 -1,1 -1,1 -2,2l-2 2c1,-2 6,-9 8,-12 1,-1 2,-2 2,-4 -6,-3 -8,1 -11,5 -2,3 -7,9 -11,10z"/>
   <path class="fil1" d="M-32 120c0,0 0,0 0,0 0,0 -5,-5 -7,-9l-1 -2c-3,3 3,12 8,11z"/>
  </g>
  <g id="_429138368">
   <path class="fil0" d="M3 20l0 3c2,3 1,1 3,3 0,0 0,0 0,0 0,0 1,1 1,1 2,6 8,10 14,11 8,0 4,-6 16,1 9,5 9,-4 5,-7 -2,-2 -5,-3 -6,-5 3,0 7,2 10,1 2,-3 1,-7 -3,-8 -2,-1 -9,-2 -12,-2 -1,-8 -7,-10 -15,-8 -2,1 -2,2 -4,1 -2,0 -4,0 -5,1 -2,2 -3,5 -4,8z"/>
   <path class="fil1" d="M27 34l-4 -1c8,0 15,7 19,6 4,-4 -1,-7 -4,-9 -5,-3 -5,-3 -12,-4 1,0 3,0 5,0l10 1c3,0 3,0 5,-1 2,-10 -18,-3 -22,-11 1,0 1,0 1,0l2 2c1,0 1,0 3,0 -1,-3 -1,-4 -4,-5 -2,-1 -5,-1 -8,-1 -9,2 -16,13 -5,22 3,3 11,5 14,1z"/>
   <path class="fil1" d="M5 24c0,0 0,0 0,0l1 -3c1,-1 1,-2 2,-3 2,-5 3,-4 4,-6 -3,0 -4,1 -6,4 -1,2 -3,6 -1,8z"/>
  </g>
 </g>
</svg>
